<svg version="1.2" xmlns="http://www.w3.org/2000/svg" viewBox="0 0 1061 1320" width="1061" height="1320">
	<title>export202404061117006953</title>
	<style>
		.s0 { fill: #ffffff } 
	</style>
	<path id="Path 0" fill-rule="evenodd" class="s0" d="m531 0.1c25 0 50.9 0.3 57.5 0.9 6.6 0.6 20.5 1.5 31 2 10.5 0.5 24.4 1.7 31 2.5 6.6 0.9 14.9 2 18.5 2.4 3.6 0.5 10.5 1.4 15.5 2 5 0.7 11 1.6 13.5 2.2 2.5 0.5 7.6 1.4 11.5 1.9 3.9 0.5 10.8 1.7 15.5 2.5 4.7 0.9 10.5 2 13 2.4 2.5 0.5 7.2 1.4 10.5 2 3.3 0.7 9.4 1.9 13.5 2.7 4.1 0.9 8.9 1.9 10.5 2.4 1.6 0.5 4.6 1.1 6.5 1.5 1.9 0.3 5.5 1.1 8 1.6 2.5 0.6 6.8 1.8 9.5 2.5 2.8 0.8 7.3 2.1 10 2.9 2.8 0.8 7.7 2.1 11 3 3.3 0.9 9.8 2.8 14.5 4.2 4.7 1.4 12.3 3.8 17 5.3 4.7 1.5 10.5 3.3 13 4.1 2.5 0.7 9.9 3.1 16.5 5.4 6.6 2.3 14.5 5 17.5 5.9 3 1 8.2 2.8 11.5 4.1 3.3 1.3 11 4.3 17 6.6 6 2.3 16.4 6.4 23 9.1 6.6 2.7 17 7.2 23 10 6 2.8 17.1 8 24.5 11.6 7.4 3.5 24.3 11.8 37.5 18.4 13.2 6.6 24.6 12.5 25.3 13.1 0.7 0.7 1.3 2.2 1.2 3.5 0 1.2-2.9 7.7-6.4 14.5-3.5 6.7-7.4 14-8.6 16.2-1.2 2.2-5.2 9.2-8.8 15.5-3.5 6.3-11.9 20.7-18.5 32-6.6 11.3-14.4 24.6-17.2 29.5-2.9 4.9-6.2 10.6-7.3 12.5-1.1 1.9-2.6 3.8-3.4 4.2-0.7 0.3-7.1-2.2-14.3-5.6-7.1-3.5-20-9.7-28.5-13.8-8.5-4.2-18-8.7-21-10.1-3-1.4-10.1-4.6-15.8-7.1-5.6-2.5-15.7-6.9-22.4-9.7-6.8-2.9-16.6-6.7-21.8-8.6-5.2-1.9-14.5-5.2-20.5-7.4-6-2.2-16.9-5.9-24-8.3-7.1-2.4-15.5-5-18.5-5.9-3-0.8-8.2-2.2-11.5-3.1-3.3-1-7.8-2.2-10-2.8-2.2-0.5-5.1-1.4-6.5-2-1.4-0.5-4.3-1.4-6.5-1.9-2.2-0.4-6.7-1.5-10-2.3-3.3-0.9-8.9-2.2-12.5-3-3.6-0.9-9.6-2.3-13.5-3.1-3.9-0.9-9-2-11.5-2.5-2.5-0.5-8.3-1.6-13-2.4-4.7-0.9-12.5-2.3-17.5-3.1-5-0.8-12.1-2-16-2.5-3.9-0.6-7.7-1.2-8.5-1.5-0.8-0.3-4.9-1-9-1.5-4.1-0.6-12.5-1.8-18.5-2.6-6-0.8-21.4-1.9-34-2.5-13.4-0.6-49.7-0.9-87-0.6-38 0.3-66.8 0.9-71 1.6-3.9 0.6-11.9 1.5-18 2.1-6.1 0.6-14.1 1.4-18 2-3.9 0.5-11.5 1.6-17 2.5-5.5 0.9-13.6 2.3-18 3.1-4.4 0.8-10.7 1.9-14 2.4-3.3 0.5-7.6 1.4-9.5 1.9-1.9 0.5-6.9 1.7-11 2.6-4.1 0.9-9.1 2-11 2.5-1.9 0.5-6.9 1.6-11 2.5-4.1 0.9-10.6 2.3-14.5 3.2-3.9 0.8-10.4 2.6-14.5 3.9-4.1 1.3-10.2 3-13.5 3.9-3.3 0.9-8.3 2.2-11 3-2.8 0.8-7.7 2.4-11 3.4-3.3 1.1-11.8 4.1-19 6.6-7.2 2.6-16.4 5.8-20.5 7.1-4.1 1.4-14.7 5.3-23.5 8.5-8.8 3.3-22.7 9-31 12.7-8.2 3.7-27.3 12.8-42.5 20.4-15.1 7.5-31.4 15.2-36.3 17.2-6.7 2.8-9.1 3.4-10.7 2.6-1.1-0.6-3.6-3.5-5.5-6.5-1.9-3-3.5-5.7-3.5-6 0-0.3-7-12.5-15.6-27.2-8.6-14.8-17-29.3-18.6-32.3-1.7-3-4.2-7.5-5.6-10-1.4-2.5-4.8-8.6-7.5-13.5-2.6-4.9-6.6-12.7-8.8-17.2-2.1-4.6-3.8-9.1-3.6-10 0.1-1.3 12.7-8 41.3-22.3 22.6-11.3 44-21.8 47.5-23.4 3.5-1.6 9.6-4.4 13.4-6.3 3.8-1.9 11.3-5.3 16.5-7.5 5.2-2.2 12.4-5.1 16-6.4 3.6-1.3 10.3-3.8 15-5.5 4.7-1.7 12.1-4.4 16.5-6 4.4-1.5 13.2-4.6 19.5-6.9 6.3-2.3 14-4.9 17-5.9 3-1 10-3.2 15.5-4.9 5.5-1.7 14.1-4.3 19-5.7 4.9-1.4 11.3-3.2 14-4 2.8-0.8 6.8-1.8 9-2.3 2.2-0.5 10.5-2.6 18.5-4.6 8-2 16.1-4.1 18-4.5 1.9-0.5 6.9-1.6 11-2.5 4.1-0.9 10.2-2.1 13.5-2.6 3.3-0.6 8-1.4 10.5-2 2.5-0.6 7.9-1.7 12-2.5 4.1-0.8 12-2.2 17.5-3 5.5-0.8 14.3-2.2 19.5-3 5.2-0.8 15.8-2.2 23.5-3 7.7-0.9 17.6-2.1 22-2.6 4.4-0.5 14.8-1.4 23-1.9 8.3-0.6 19.5-1.5 25-1.9 5.5-0.4 30.5-0.9 55.5-1zm0 171.1c27.8-0.1 56.8 0.3 64.5 0.8 7.7 0.5 19.2 1.4 25.5 2 6.3 0.5 17.1 1.6 24 2.4 6.9 0.8 13.9 1.7 15.5 2 1.6 0.4 6.6 1.1 11 1.6 4.4 0.5 11.8 1.6 16.5 2.5 4.7 0.9 10.3 2 12.5 2.5 2.2 0.4 7.4 1.5 11.5 2.4 4.1 0.9 10.2 2.1 13.5 2.7 3.3 0.6 8.3 1.7 11 2.4 2.8 0.7 7.5 1.8 10.5 2.5 3 0.6 7.5 1.7 10 2.5 2.5 0.7 7.4 2 11 3 3.6 0.9 9 2.3 12 3.2 3 0.8 11.4 3.3 18.5 5.5 7.1 2.2 14.6 4.6 16.5 5.4 1.9 0.7 6 2.1 9 3 3 1 8.4 2.8 12 4.2 3.6 1.3 8 3 9.8 3.8 1.7 0.8 3.8 1.4 4.4 1.4 0.7 0 4.9 1.5 9.3 3.4 4.4 1.8 15.4 6.5 24.5 10.4 9.1 3.9 21.5 9.3 27.5 12 6 2.7 15.3 6.9 20.5 9.3 5.2 2.4 15.8 7.7 23.5 11.8 7.7 4 14.8 8.1 15.8 9 1 0.9 1.8 2.5 1.8 3.6 0 1.1-3 7.9-6.5 15-3.6 7.1-8.5 16.6-10.9 21-2.4 4.4-6.4 11.6-8.9 16-2.5 4.4-6 10.7-7.8 14-1.8 3.3-7.4 13.2-12.5 22-5 8.8-10.3 18-11.7 20.5-1.4 2.5-3.9 6.9-5.7 9.8-1.7 2.8-3.1 5.3-3.1 5.5 0 0.1-2.9 5.4-6.6 11.7-3.6 6.3-8.2 14.4-10.2 18-1.9 3.6-4.6 8.2-5.9 10.3-1.2 2-2.3 3.8-2.3 4 0 0.1-2.3 4.3-5.1 9.2-2.8 4.9-12 20.9-20.4 35.5-8.4 14.6-18.6 32.1-22.6 39-4 6.9-11 19-15.6 27-4.6 8-8.3 14.6-8.3 14.8 0 0.1-0.8 1.4-1.8 3-1.1 1.5-3.2 5.2-4.9 8.2-1.6 3-5.5 9.8-8.5 15-3 5.2-9 15.6-13.3 23-4.3 7.4-10.1 17.3-12.8 22-2.7 4.7-9.3 16.1-14.6 25.5-5.4 9.4-11.3 19.9-13.3 23.5-2 3.6-6.7 12.6-10.5 20-3.9 7.4-9.8 19.8-13.2 27.5-3.5 7.7-6.9 15.4-7.7 17-0.7 1.6-2.8 6.4-4.5 10.5-1.7 4.1-4 9.8-5.1 12.5-1.1 2.8-2.3 6.1-2.8 7.5-0.5 1.4-1.8 5-3 8-1.2 3-5.1 13.8-8.7 24-3.6 10.2-6.9 19.9-7.3 21.5-0.4 1.6-1.2 4.4-1.8 6-0.5 1.6-1.7 5.7-2.7 9-0.9 3.3-2.7 9.6-4 14-1.3 4.4-3.1 10.9-4 14.5-0.9 3.6-2.3 8.8-3 11.5-0.7 2.8-2.1 8.6-3 13-0.9 4.4-2.7 12.5-4.1 18-1.3 5.5-2.4 11.2-2.4 12.8 0 1.5-0.4 3.7-1 5-0.5 1.2-1.4 5.3-2 9.2-0.5 3.9-1.7 11.7-2.6 17.5-0.8 5.8-2 13-2.4 16-0.5 3-1.4 10.2-2 16-0.6 5.8-1.5 12.8-2.1 15.5-0.5 2.8-1.4 12.9-2 22.5-0.5 9.6-1.4 21.1-1.9 25.5-0.5 4.4-0.9 34.8-1 127l-2.6 7.5c-1.5 4.1-3.7 9.1-4.9 11-1.2 1.9-4.6 5.8-7.6 8.5q-5.4 5-12.4 7.8c-6.5 2.6-7.9 2.8-18.5 2.5-10.6-0.3-12-0.6-18.3-3.6-4-1.9-8.7-5.3-11.8-8.4-3.2-3.2-6.6-8.3-12.4-20.3l-0.6-66.5c-0.3-36.6-0.9-67.6-1.4-69-0.4-1.4-1.5-3.6-2.4-4.9-0.9-1.3-3.1-3-4.9-3.8-1.7-0.7-5.1-1.3-7.5-1.3-2.3 0-5.6 0.8-7.2 1.8-1.6 1-3.9 3.6-5 5.8-2 3.8-2 6.4-3 217.9l-3.6 7.5c-2.8 5.7-5.3 9-10.2 13.5-4 3.7-8.7 6.9-12.4 8.4-3.9 1.6-8.5 2.5-14.3 2.9-5.1 0.3-10.7-0.1-14-0.8-3-0.7-7.8-2.4-10.5-3.8-2.8-1.4-7.2-4.6-9.9-7.1-3.3-3.1-6-7-8.3-11.8-2.2-5-3.6-9.9-4.3-15.5-0.6-5-1-43.2-1.1-96.3 0-48.4-0.4-94.5-0.9-102.5-0.4-8-1.3-21.9-1.9-31-0.5-9.1-1.5-19.2-2-22.5-0.6-3.3-1.3-9.8-1.6-14.5-0.3-4.7-1-10.5-1.5-13-0.5-2.5-1.4-8.3-2.1-13-0.7-4.7-1.6-10.5-2-13-0.5-2.5-1.5-8.3-2.3-13-0.8-4.7-2-11.2-2.5-14.5-0.6-3.3-1.5-8-2-10.5-0.6-2.5-2-8.5-3.2-13.5-1.2-5-2.8-11.7-3.5-15-0.8-3.3-2.1-8.7-2.9-12-0.9-3.3-1.9-7.6-2.4-9.5-0.4-1.9-1.8-6.9-3-11-1.3-4.1-2.8-9.3-3.5-11.5-0.7-2.2-2.1-6.7-3.1-10-1-3.3-2.7-8.7-3.8-12-1.1-3.3-3.7-11-5.8-17-2.1-6-5.1-14.6-6.7-19-1.6-4.4-3.8-10.3-5-13-1.1-2.8-3.9-9.7-6.3-15.5-2.4-5.8-4.9-11.4-5.6-12.5-0.7-1.1-1.3-2.7-1.3-3.5 0-0.8-3.2-7.9-7-15.8-3.9-7.8-8.8-17.1-11-20.7-2.2-3.6-4-6.7-4-7 0-0.3-2.5-4.5-5.5-9.5-3-5-5.5-9.2-5.5-9.5 0-0.3-9.1-16.1-20.2-35.3-11-19.1-24.2-41.9-29.3-50.7-5-8.8-9.7-16.9-10.3-18-0.6-1.1-3.6-6.2-6.6-11.3-3.1-5-5.6-9.4-5.6-9.7 0-0.3-1.7-3.3-3.7-6.8-2.1-3.4-4.2-7-4.8-7.9-0.5-0.9-2.3-4.1-3.9-7-1.6-2.9-3.7-6.5-4.7-8.1-1.1-1.5-1.9-2.8-1.9-3 0-0.1-2.4-4.5-5.3-9.7-3-5.2-8.9-15.6-13.2-23-4.3-7.4-8.9-15.5-10.3-18-1.4-2.5-3.6-6.2-4.9-8.3-1.2-2-2.3-3.8-2.3-4 0.1-0.1-5.1-9.2-11.3-20.2-6.3-11-13.6-23.8-16.4-28.5-2.7-4.7-8.4-14.6-12.8-22-4.3-7.4-8.9-15.2-10.2-17.3-1.2-2-2.3-3.9-2.3-4.2 0-0.3-1.8-3.4-4-7-2.2-3.6-4-6.7-4-7 0-0.3-1.1-2.2-2.3-4.3-1.3-2-3.6-6-5.2-8.7-1.5-2.8-5-9.1-7.8-14-2.7-4.9-6.3-11.5-8-14.5-1.6-3-5.6-10.4-9-16.5-3.3-6.1-7.3-13.4-8.8-16.3-1.6-2.8-2.9-6-2.9-7-0.1-0.9 0.7-2.4 1.7-3.3 1-0.9 9.9-5.9 19.8-11 9.9-5.1 24.8-12.6 33-16.5 8.3-3.9 18.4-8.7 22.5-10.6 4.1-2 11.6-5.2 16.5-7.2 4.9-2.1 11.5-4.8 14.5-6.1 3-1.4 9.1-3.8 13.5-5.5 4.4-1.8 9.6-3.7 11.5-4.4 1.9-0.7 5.1-1.9 7-2.5 1.9-0.7 6.4-2.4 10-3.7 3.6-1.4 9.2-3.4 12.5-4.4 3.3-1.1 8.3-2.7 11-3.5 2.7-0.8 8.1-2.4 12-3.6 3.9-1.2 9.5-2.7 12.5-3.5 3-0.8 8-2.1 11-2.8 3-0.8 10-2.6 15.5-4.1 5.5-1.5 12.7-3.4 16-4.2 3.3-0.7 9.1-2 13-2.8 3.9-0.8 10.4-2.2 14.5-3.1 4.1-0.9 9.3-2 11.5-2.4 2.2-0.4 6.9-1.3 10.5-1.9 3.6-0.7 8.1-1.6 10-2.1 1.9-0.6 8-1.4 13.5-2 5.5-0.5 15.2-1.7 21.5-2.5 6.3-0.8 17.1-2 24-2.6 6.9-0.6 17.7-1.4 24-1.8 6.3-0.4 34.2-0.9 62-0.9zm-167.5 113.7c-4.1 1.2-11 3.8-15.3 6-4.2 2.1-10.4 5.9-13.7 8.4-3.3 2.5-8.7 7.4-12.1 10.9-3.4 3.4-8.3 9.7-10.9 13.8-2.7 4.1-6 10-7.3 13-1.3 3-3.5 9.8-4.8 15-1.9 7.4-2.5 12.1-2.5 21.5 0 7 0.6 15.2 1.5 19.5 0.9 4.1 2.7 10.4 4.1 14 1.4 3.6 4.2 9.4 6.1 13 2 3.6 6 9.4 8.8 13 2.9 3.6 7.7 8.6 10.7 11.1 3 2.5 7.4 5.9 9.9 7.6 2.5 1.7 7.2 4.4 10.5 6 3.3 1.7 8.9 3.9 12.5 5.1 3.6 1.1 9 2.6 12 3.3 3 0.7 10.9 1.2 17.5 1.2 9.5-0.1 14-0.6 22-2.7 5.5-1.4 12.7-3.9 16-5.4 3.3-1.6 8.6-4.5 11.8-6.5 3.1-2 9.1-7 13.3-11 4.2-3.9 9.6-9.9 11.9-13.2 2.4-3.3 6.2-9.8 8.4-14.5 2.2-4.7 5-12.1 6.1-16.5 1.2-4.4 2.4-12.7 2.7-18.5 0.3-6.1 0.1-13.6-0.6-18-0.7-4.1-2.1-10.4-3.2-14-1.1-3.6-3.7-10.1-5.9-14.5-2.2-4.4-6.6-11.4-9.7-15.5-3.2-4-8.9-10.1-12.8-13.3-3.9-3.3-10.4-7.9-14.5-10.3-4.1-2.5-11.6-5.8-16.5-7.4-4.9-1.5-11.9-3.3-15.5-3.9-3.6-0.6-10.3-1-15-1-4.7 0.1-10.6 0.5-13.2 0.9-2.6 0.4-8.1 1.7-12.3 2.9zm278 94.7c-2.8 0.9-8.1 3.2-12 5.1-3.9 1.8-9.9 5.5-13.5 8.2-3.6 2.7-9.6 8.2-13.5 12.3-3.9 4.2-8.8 10.6-11.1 14.4-2.2 3.8-5.2 9.8-6.7 13.4-1.4 3.6-3.4 9.4-4.4 13-1.4 5-1.8 10.1-1.7 22.5 0 14.5 0.3 16.8 2.7 24.7 1.5 4.9 4.4 12.3 6.6 16.5 2.1 4.3 5.5 10 7.6 12.8 2 2.7 6 7.4 8.9 10.3 2.8 3 7.8 7.4 11.1 9.9 3.3 2.5 9.5 6.3 13.7 8.4 4.3 2.2 11.7 5.1 16.6 6.6 7.8 2.4 10.3 2.7 24.7 2.7 13.7 0.1 17.1-0.2 24-2.2 4.4-1.2 11.1-3.7 15-5.4 3.9-1.7 9.7-4.9 13-7.2 3.3-2.2 8.9-6.7 12.4-10 3.5-3.4 8.2-8.6 10.5-11.6 2.3-3 5.4-7.5 6.8-10 1.4-2.5 3.9-7.9 5.6-12 1.6-4.1 3.7-11.1 4.6-15.5 0.9-4.5 1.6-12.7 1.6-18.8 0-5.9-0.7-13.8-1.5-17.7-0.8-3.9-2.6-10.3-4-14.3-1.4-3.9-4.7-10.8-7.3-15.2-3-5.1-8.2-11.5-14.2-17.6-6.3-6.4-12.3-11.3-18-14.7-5.1-3.1-12.9-6.6-19.5-8.8-10.2-3.4-12-3.7-25.5-4-10.4-0.3-16.3 0-21 1.1-3.6 0.8-8.8 2.2-11.5 3.1zm-185.5 187c-4.7 1.4-10.8 3.8-13.5 5.1-2.8 1.4-7.5 4.2-10.5 6.2-3 2-8.3 6.3-11.9 9.6-3.5 3.3-8.3 8.5-10.6 11.5-2.4 3-6.1 8.9-8.3 13-2.2 4.1-5.2 11.2-6.6 15.7-1.4 4.6-3.1 12.5-3.7 17.5-0.6 5.1-0.8 12.7-0.4 16.8 0.3 4.1 1.3 10.4 2.1 14 0.8 3.6 2.4 9 3.5 12 1.1 3 3.6 8.4 5.6 12 1.9 3.6 5.5 9 7.8 12 2.4 3 6.7 7.8 9.7 10.6 2.9 2.9 7.5 6.8 10.3 8.9 2.7 2.1 7.9 5.2 11.5 7 3.6 1.8 10.2 4.4 14.7 5.9 4.6 1.4 12.7 3.1 18.1 3.8 7.4 0.9 12 0.9 19.7 0 5.5-0.7 12.7-2.1 16-3.1 3.3-1 8.9-3.2 12.5-4.8 3.6-1.6 9.2-4.7 12.5-6.8 3.3-2.1 9.5-7.2 13.8-11.4 4.3-4.2 9.9-10.7 12.5-14.6 2.5-3.9 6.1-10.1 7.8-14 1.8-3.9 4.2-10.8 5.3-15.5 1.2-4.7 2.4-12.3 2.7-17 0.4-5.1 0.2-11.9-0.6-17-0.6-4.7-2.3-12.1-3.7-16.5-1.4-4.4-3.7-10.3-5-13-1.4-2.8-4.6-8.1-7.2-11.9-2.5-3.8-8.2-10.3-12.6-14.5-4.4-4.2-11.1-9.5-15-11.8-3.9-2.3-9.5-5.2-12.5-6.6-3-1.3-9.3-3.4-14-4.6-5-1.3-12.8-2.3-19-2.6-5.8-0.2-13.2 0-16.5 0.5-3.3 0.5-9.8 2.1-14.5 3.6zm410 543.5c7.4-0.1 16.2 0.5 21.5 1.4 5 0.9 12.1 2.5 16 3.7 3.9 1.1 10.1 3.4 13.8 5.2 3.7 1.7 6.8 3.4 6.7 3.8 0 0.5-2.8 8.3-6.1 17.5-3.4 9.3-6.3 16.9-6.5 17-0.2 0.2-4.3-1.3-9.2-3.2-4.8-1.8-11.8-4.1-15.7-5-5.1-1.2-10.5-1.6-20-1.3-11.5 0.3-13.6 0.6-18 2.8-2.9 1.5-5.9 4-7.3 6q-2.3 3.5-2.3 8c0 3.2 0.8 5.6 2.7 8.5 1.5 2.2 3.4 4.6 4.3 5.3 0.9 0.7 3.6 2.3 6.1 3.6 2.5 1.3 10.8 4.7 18.5 7.6 7.7 2.8 19.4 7.8 26 11 6.6 3.2 14.2 7.6 17 9.7 2.7 2.1 7.1 6.6 9.6 9.8 2.5 3.4 5.5 8.9 6.7 12.5 1.2 3.6 2.7 10.3 3.2 15 0.5 4.7 0.7 11 0.4 14-0.3 3-1.3 8.2-2.1 11.5-0.8 3.3-2.6 8.1-3.9 10.7-1.3 2.7-5.2 7.8-8.7 11.4-4.7 5-8.2 7.6-14.2 10.5-4.4 2.2-11.6 4.8-16 5.9-4.4 1-13.2 2.4-19.5 3-8.6 0.9-15 0.9-25 0-7.4-0.6-18-2-23.5-3.2-5.5-1.1-12.7-3-16-4.3-3.3-1.2-8-3.2-10.5-4.5-2.5-1.2-4.6-2.3-4.8-2.4-0.2 0 2.5-8.1 6-17.9 3.5-9.8 6.8-17.8 7.3-17.8 0.5 0 3.9 1.4 7.5 3 3.6 1.6 9.6 3.8 13.5 4.9 3.9 1.2 12 2.6 18 3.3 6 0.6 14.6 0.9 19 0.6 4.4-0.3 10.5-1.5 13.5-2.6 3.3-1.2 6.8-3.4 8.7-5.5 2.2-2.4 3.5-5 3.9-7.9 0.3-2.3 0.1-6.1-0.5-8.5-0.7-2.8-2.5-5.6-5.4-8.3-2.3-2.3-7.3-5.6-11.2-7.4-3.9-1.9-13.3-5.7-21-8.5-7.7-2.9-17.6-7-22-9.2-4.4-2.2-10-5.5-12.5-7.3-2.5-1.8-6.2-5.1-8.3-7.4-2-2.2-4.8-5.9-6.2-8.1-1.4-2.2-3.5-6.8-4.6-10.3-1.6-4.7-2.1-8.7-2.2-16.7 0-7.2 0.5-12.4 1.7-16.5 1-3.3 3.2-8.7 4.9-12 1.8-3.3 5.9-8.7 9.2-12 3.5-3.5 8.9-7.5 13-9.6 3.9-2 9.9-4.6 13.5-5.8 3.6-1.1 9.2-2.5 12.5-3 3.3-0.5 11.6-0.9 18.5-1zm-152 3.9h45v71.8c0 57.3-0.3 73.3-1.4 79.7-0.8 4.4-2.4 10.7-3.7 14-1.2 3.3-3.8 8.4-5.8 11.4-2 3-5.9 7.4-8.6 9.8-2.8 2.4-8.1 5.9-12 7.8-3.9 1.9-9.7 4.2-13 5-3.3 0.8-10 2-15 2.6-6.5 0.8-12.7 0.8-22 0-8.4-0.7-16-2.1-21.5-3.7-4.7-1.5-12-4.4-16.3-6.5-4.2-2.2-7.9-4.5-8.2-5.2-0.3-0.6 2.7-8.6 6.6-17.7 3.9-9.1 7.3-16.6 7.5-16.8 0.2-0.1 4.6 1.8 9.6 4.2 5.1 2.4 11.5 5 14.3 5.7 2.7 0.8 9 1.4 14 1.3 5.6 0 10.9-0.7 14-1.7 2.8-0.9 6.4-3.1 8.1-4.9 1.8-1.8 3.9-4.6 4.7-6.3 0.8-1.7 2-5.7 2.6-9 0.7-4 1.1-28.5 1.1-73.8zm-121.2 149.1c1.7 0 5.3 0.5 8 1.1 2.6 0.7 6.3 2.3 8.2 3.8 1.9 1.4 4.5 3.7 5.7 5 1.2 1.4 3 4.8 3.9 7.5 1.2 3.5 1.5 7 1.2 11.5-0.3 3.6-1.4 8.3-2.5 10.5-1.1 2.3-3.8 5.5-5.9 7.3-2.1 1.8-5.9 3.9-8.4 4.8-2.5 0.8-7.3 1.5-10.7 1.5-5.1 0-7.4-0.6-12.5-3.3-4.1-2.1-7.2-4.6-9-7.3-1.5-2.2-3.2-6.6-3.8-10-0.9-4.3-0.9-7.5-0.1-11.5 0.6-3 2.1-7 3.3-8.9 1.3-1.8 4.1-4.8 6.2-6.5 2.1-1.7 5.9-3.6 8.5-4.2 2.5-0.7 6.1-1.2 7.9-1.3z"/>
</svg>